PathFileType	4	(X/Y/Z)	C:\Users\Willi\SynologyDrive\Deimel_MSc_Deadlift\Athlete_03\Athlete_3_22_07_06\dl_80\marker_experimental.trc
DataRate	CameraRate	NumFrames	NumMarkers	Units	OrigDataRate	OrigDataStartFrame	OrigNumFrames
200.000000	200.000000	4	59	mm	200.000000	2067	3308
Frame#	Time	BL			BR			GLAB			RFHD			LFHD			C7			T6			SPINMOL			SPINM2			SPINM3			T12			BELTOL			BELT2			BELT3			SACROL			SACR2			SACR3			LTHOL			LTH2			LTH3			LSHAOL			LSHA2			LSHA3			LHEE			LTOE			LM5			RTHOL			RTH2			RTH3			RSHAOL			RSHA2			RSHA3			RHEE			RTOE			RM5			STRN			XIPH			LACR			LUAOL			LUA2			LUA3			LLAOL			LLA2			LLA3			LWRU			RACR			RUAOL			RUA2			RUA3			RLAOL			RLA2			RLA3			RWRU			USERMO0			USERMO1			USERMO2			USERMO3			USERMO4			USERMO5			
		X1	Y1	Z1	X2	Y2	Z2	X3	Y3	Z3	X4	Y4	Z4	X5	Y5	Z5	X6	Y6	Z6	X7	Y7	Z7	X8	Y8	Z8	X9	Y9	Z9	X10	Y10	Z10	X11	Y11	Z11	X12	Y12	Z12	X13	Y13	Z13	X14	Y14	Z14	X15	Y15	Z15	X16	Y16	Z16	X17	Y17	Z17	X18	Y18	Z18	X19	Y19	Z19	X20	Y20	Z20	X21	Y21	Z21	X22	Y22	Z22	X23	Y23	Z23	X24	Y24	Z24	X25	Y25	Z25	X26	Y26	Z26	X27	Y27	Z27	X28	Y28	Z28	X29	Y29	Z29	X30	Y30	Z30	X31	Y31	Z31	X32	Y32	Z32	X33	Y33	Z33	X34	Y34	Z34	X35	Y35	Z35	X36	Y36	Z36	X37	Y37	Z37	X38	Y38	Z38	X39	Y39	Z39	X40	Y40	Z40	X41	Y41	Z41	X42	Y42	Z42	X43	Y43	Z43	X44	Y44	Z44	X45	Y45	Z45	X46	Y46	Z46	X47	Y47	Z47	X48	Y48	Z48	X49	Y49	Z49	X50	Y50	Z50	X51	Y51	Z51	X52	Y52	Z52	X53	Y53	Z53	X54	Y54	Z54	X55	Y55	Z55	X56	Y56	Z56	X57	Y57	Z57	X58	Y58	Z58	X59	Y59	Z59	

2068	10.335	155.4065551757812	311.2077026367189	-2311.6689453125	193.1107940673828	291.6871032714844	-89.71175384521483	532.63671875	1133.186401367188	-1203.111083984375	478.9056701660156	1168.890014648438	-1127.528930664062	483.2205810546875	1169.38330078125	-1285.218872070312	295.3075866699219	1136.369384765625	-1205.7607421875	112.2958450317383	1090.322998046875	-1208.076538085938	84.72277069091797	1082.644409179688	-1210.142700195312	33.42688751220703	1060.5498046875	-1152.794555664062	29.2981071472168	1056.150268554688	-1202.287841796875	-3.391846418380737	1037.368408203125	-1204.352294921875	-49.81696319580078	1037.270874023438	-1207.48095703125	-98.94965362548828	1003.807067871094	-1153.948974609375	-103.8322601318359	1006.486877441406	-1203.812255859375	-166.6483917236328	940.1555786132814	-1221.09521484375	-154.3206024169922	944.3854980468751	-1171.188354492188	-206.1382904052734	904.8137207031251	-1180.822143554688	-11.84135723114014	695.3984985351564	-1426.7802734375	-13.11395740509033	615.9736328125001	-1417.297729492188	26.4062557220459	646.8215942382814	-1424.104248046875	102.3405609130859	345.5924682617189	-1431.083862304688	58.63916015625	280.3941955566407	-1424.908569335938	107.0730895996094	285.1566467285157	-1423.73828125	0.4450057148933411	67.55881500244149	-1335.100341796875	210.2179260253906	73.39087677001962	-1351.103515625	159.4767913818359	54.1273078918458	-1454.653442382812	10.20032024383545	664.3545532226564	-986.7959594726562	87.03193664550781	642.3766479492189	-984.94677734375	46.04394149780273	613.5388183593751	-987.2598876953125	91.23619842529297	334.8354492187501	-987.1406860351562	125.2618560791016	264.4840087890626	-998.4883422851562	76.72599029541016	276.2162475585938	-998.5279541015625	1.263346195220947	66.11188507080085	-1100.122192382812	211.2762756347656	66.88533020019538	-1062.889892578125	154.7537689208984	66.96101379394537	-969.8712158203125	326.4410705566406	967.5115966796876	-1215.526245117188	234.8108673095703	836.3233032226564	-1211.388549804688	294.2649841308594	1003.259338378906	-1415.531127929688	246.5403442382812	863.5475463867189	-1472.948852539062	208.4430847167969	812.6396484375001	-1491.888671875	252.2843322753906	798.0755615234376	-1468.98583984375	232.7546081542969	577.5925292968751	-1467.625244140625	210.445068359375	516.3195190429689	-1475.72119140625	241.9057006835938	521.3967285156251	-1437.617431640625	218.3379058837891	425.5300598144532	-1453.861694335938	310.7321472167969	990.7604370117189	-1018.618469238281	272.1335144042969	818.8109741210939	-985.89404296875	275.0957336425781	760.1560668945314	-1015.497619628906	260.5054016113281	756.2446289062501	-967.2569580078125	245.7580261230469	560.0157470703126	-979.2987060546875	246.9846038818359	503.2968750000001	-1010.3740234375	232.5178375244141	499.6231079101563	-961.4655151367188	220.3428802490234	423.8903808593751	-958.8763427734375	0.1869589984416962	0.01780439913272859	-0.267533004283905	0.02220319956541061	0.2099529951810837	-0.161533996462822	0.07320629805326462	0.07247000187635423	-0.1155529990792274	0.07102929800748825	2.166599988937378	-2.151299953460693	1.969519972801208	2.638689994812012	-1.982120037078857	2.883640050888062	0	0	
2069	10.34	155.3919219970703	312.6397399902345	-2311.719970703125	193.1274566650391	292.7219848632812	-89.7714157104492	532.3945922851562	1134.45068359375	-1203.135498046875	478.759765625	1170.208740234375	-1127.50341796875	482.9429931640625	1170.684448242188	-1285.208984375	295.0329284667969	1137.6806640625	-1205.619873046875	111.9853591918945	1091.456298828125	-1207.980712890625	84.41565704345703	1083.736328125	-1210.052368164062	33.12725448608398	1061.578857421875	-1152.72265625	29.01604652404785	1057.182495117188	-1202.21630859375	-3.676722526550293	1038.311401367188	-1204.293090820312	-50.17522430419922	1038.130981445312	-1207.442260742188	-99.25049591064453	1004.572692871094	-1153.915405273438	-104.1258697509766	1007.232666015625	-1203.7802734375	-166.7933197021484	940.7852783203126	-1221.059692382812	-154.4874267578125	945.0591430664064	-1171.145629882812	-206.2214050292969	905.3755493164064	-1180.800903320312	-11.97902011871338	695.7882690429689	-1426.8076171875	-13.36191940307617	616.3659667968751	-1417.276123046875	26.19644927978516	647.1527709960939	-1424.1513671875	102.0414962768555	345.6127929687501	-1431.133422851562	58.39657211303711	280.3751831054689	-1424.9248046875	106.8998184204102	285.0820922851564	-1423.7314453125	0.4434697329998016	67.55249786376962	-1335.083862304688	210.2109222412109	73.39465332031259	-1351.120361328125	159.4729309082031	54.11743927001962	-1454.66552734375	9.92317008972168	664.6553955078126	-986.6187133789062	86.69718170166016	642.4885253906251	-984.66015625	45.64516067504883	613.7524414062501	-987.09228515625	90.87163543701172	334.8282165527344	-986.9950561523438	125.0495681762695	264.4868469238282	-998.390869140625	76.434814453125	276.2025146484376	-998.4415283203125	1.266137719154358	66.10334777832038	-1100.14208984375	211.2703399658203	66.88259124755866	-1062.889770507812	154.7424011230469	66.97081756591803	-969.8634033203125	326.2823181152344	968.8596191406251	-1215.4140625	234.7914886474609	837.5651855468751	-1211.2890625	294.1143798828125	1004.599792480469	-1415.4150390625	246.5079498291016	864.8583374023439	-1472.823364257812	208.4595947265625	813.9171142578126	-1491.77783203125	252.3137359619141	799.3860473632814	-1468.87451171875	232.8425598144531	578.8610229492189	-1467.42041015625	210.5512237548828	517.6211547851564	-1475.63037109375	241.934814453125	522.6456909179689	-1437.454345703125	218.3670043945312	426.8025207519532	-1453.8017578125	310.4935607910156	992.0306396484376	-1018.490234375	271.873779296875	820.0607910156251	-985.7501831054688	274.9449768066406	761.3983154296876	-1015.34228515625	260.2451171875	757.4894409179689	-967.1336669921875	245.6333923339844	561.2744140625001	-979.1967163085938	246.9903869628906	504.5666809082032	-1010.291198730469	232.3878173828125	500.8587341308594	-961.4320678710938	220.3117218017578	425.1086730957032	-958.9207763671875	0.1854989975690842	0.01739780046045782	-0.272273987531662	0.02247380092740059	0.214709997177124	-0.1644400060176849	0.07169300317764282	0.07220190018415452	-0.1141249984502792	0.0692719966173172	2.169039964675903	-2.144550085067749	1.967820048332214	2.644330024719238	-1.969249963760376	2.878190040588379	0	0	
2070	10.345	155.3810577392578	314.0840759277345	-2311.77880859375	193.1471252441406	293.7771606445312	-89.83649444580077	532.141357421875	1135.744750976562	-1203.146118164062	478.6009826660156	1171.552856445312	-1127.463012695312	482.650390625	1172.01416015625	-1285.183837890625	294.7461853027344	1139.010009765625	-1205.465698242188	111.6637115478516	1092.599609375	-1207.872192382812	84.09767150878906	1084.836791992188	-1209.949584960938	32.81826782226562	1062.6142578125	-1152.638671875	28.72469520568848	1058.220947265625	-1202.132446289062	-3.969208002090454	1039.257690429688	-1204.221435546875	-50.54119110107422	1038.993408203125	-1207.390380859375	-99.55583190917969	1005.337219238281	-1153.868774414062	-104.425422668457	1007.977966308594	-1203.734741210938	-166.9408111572266	941.4104003906251	-1221.006225585938	-154.6563262939453	945.7303466796876	-1171.090087890625	-206.3043823242188	905.9321899414064	-1180.763427734375	-12.1349458694458	696.1723632812501	-1426.83447265625	-13.62431621551514	616.7527465820314	-1417.248168945312	25.9700870513916	647.4792480468751	-1424.197875976562	101.7315444946289	345.6228027343751	-1431.183349609375	58.14194107055664	280.3460083007814	-1424.940063476562	106.7158813476562	284.9960327148439	-1423.72216796875	0.4411892294883728	67.54412841796884	-1335.065795898438	210.2036590576172	73.39905548095712	-1351.138061523438	159.4685363769531	54.10665130615244	-1454.678833007812	9.652126312255859	664.9552612304689	-986.436767578125	86.36767578125	642.6010131835939	-984.3712158203125	45.25322341918945	613.9660034179689	-986.9219970703125	90.51726531982422	334.8283386230469	-986.8477172851562	124.8500137329102	264.4985656738282	-998.2941284179688	76.15342712402344	276.1976623535157	-998.3500366210938	1.269349694252014	66.09465026855476	-1100.1611328125	211.2653350830078	66.88110351562507	-1062.888549804688	154.7279205322266	66.97937011718756	-969.8549194335938	326.1182250976562	970.2273559570314	-1215.287719726562	234.7726135253906	838.8228759765626	-1211.17578125	293.9594421386719	1005.958740234375	-1415.283447265625	246.4775695800781	866.1844482421876	-1472.686279296875	208.4823913574219	815.2088012695314	-1491.65966796875	252.3475341796875	800.7128295898439	-1468.751708984375	232.9355621337891	580.1492309570314	-1467.214111328125	210.6642913818359	518.9414672851564	-1475.539794921875	241.96826171875	523.9120483398439	-1437.288452148438	218.4016418457031	428.0915527343751	-1453.743286132812	310.24169921875	993.3214111328126	-1018.343627929687	271.6053771972656	821.3253173828126	-985.5991821289062	274.7918701171875	762.6583862304689	-1015.184509277344	259.9776611328125	758.7476806640626	-967.009521484375	245.5035247802734	562.5477905273439	-979.0964965820312	246.9957580566406	505.8517761230469	-1010.210327148438	232.2569427490234	502.1087646484376	-961.3998413085938	220.2789001464844	426.3407287597657	-958.96630859375	0.1841129958629608	0.01700000092387201	-0.2772130072116852	0.0226236991584301	0.2199539989233017	-0.1677089929580688	0.07018090039491653	0.07191640138626099	-0.1132489964365959	0.06799820065498352	2.171459913253784	-2.136660099029541	1.966060042381287	2.651249885559082	-1.955770015716553	2.870840072631836	0	0	
2071	10.35	155.3747100830078	315.5401000976564	-2311.845458984375	193.1702575683594	294.85205078125	-89.90698242187499	531.878173828125	1137.0693359375	-1203.140258789062	478.4293823242188	1172.9228515625	-1127.40625	482.3448791503906	1173.372680664062	-1285.141967773438	294.4486999511719	1140.357543945312	-1205.298583984375	111.3320617675781	1093.754028320312	-1207.75146484375	83.76982116699219	1085.947631835938	-1209.834838867188	32.50085067749023	1063.657592773438	-1152.543090820312	28.42508316040039	1059.26708984375	-1202.036743164062	-4.268401145935059	1040.209228515625	-1204.137817382812	-50.91399765014648	1039.860107421875	-1207.325805664062	-99.86498260498047	1006.102905273438	-1153.809814453125	-104.7301635742188	1008.725219726563	-1203.676635742188	-167.0896453857422	942.0335083007814	-1220.936645507812	-154.8268432617188	946.4016723632814	-1171.02294921875	-206.3874206542969	906.4868774414064	-1180.711303710938	-12.30830383300781	696.5516967773439	-1426.858520507812	-13.90067005157471	617.1351928710939	-1417.212890625	25.72782897949219	647.8020019531251	-1424.242309570312	101.4082870483398	345.6213378906251	-1431.231079101562	57.87238311767578	280.305877685547	-1424.953369140625	106.5177841186523	284.8982238769532	-1423.710083007812	0.438295841217041	67.53359985351571	-1335.0458984375	210.1961212158203	73.40405273437509	-1351.156616210938	159.4636993408203	54.09522247314462	-1454.69287109375	9.385499000549316	665.2575073242189	-986.2499389648438	86.04152679443359	642.7166748046876	-984.07958984375	44.86587142944336	614.1824951171876	-986.7482299804688	90.170654296875	334.8357238769532	-986.6983032226562	124.6585998535156	264.5199584960938	-998.1966552734375	75.87910461425781	276.2019653320313	-998.2525024414062	1.272876143455505	66.08573150634773	-1100.17919921875	211.2610168457031	66.8808898925782	-1062.88623046875	154.7104644775391	66.98583221435553	-969.8461303710938	325.9492492675781	971.6151123046876	-1215.1474609375	234.7540435791016	840.0971679687501	-1211.04931640625	293.7994995117188	1007.336669921875	-1415.1376953125	246.4445495605469	867.5263061523439	-1472.53955078125	208.5053253173828	816.5158081054689	-1491.535278320312	252.3798522949219	802.0562133789064	-1468.619384765625	233.0272369384766	581.4595947265626	-1467.012817382812	210.7774200439453	520.2814331054689	-1475.451782226562	242.0023498535156	525.1979370117189	-1437.125366210938	218.4389038085938	429.398895263672	-1453.688110351562	309.9773864746094	994.6327514648439	-1018.179260253906	271.3301086425781	822.6054077148439	-985.4449462890625	274.6356811523438	763.9368896484376	-1015.028015136719	259.705078125	760.0198364257814	-966.8872680664062	245.3671264648438	563.8356323242189	-978.9998168945312	246.9976501464844	507.1522216796876	-1010.133178710938	232.1252593994141	503.3735961914063	-961.36962890625	220.2439270019531	427.5869140625001	-959.0130615234375	0.1828480064868927	0.01661830022931101	-0.2822900116443634	0.02261769957840443	0.2253720015287399	-0.1712400019168854	0.06874430179595947	0.07161329686641693	-0.1130990013480186	0.06729400157928467	2.173609972000122	-2.127919912338257	1.96422004699707	2.658979892730713	-1.942170023918152	2.8613600730896	0	0	
